<svg width="20" height="16" viewBox="0 0 20 16" fill="none" xmlns="http://www.w3.org/2000/svg">
<path d="M16.5 9.625C16.5 9.60156 16.5 9.57812 16.4883 9.55469L9.75 4L3.01172 9.55469C3.01172 9.57812 3 9.60156 3 9.625V15.25C3 15.6602 3.33984 16 3.75 16H8.25V11.5H11.25V16H15.75C16.1602 16 16.5 15.6602 16.5 15.25V9.625ZM19.1133 8.81641C19.2422 8.66406 19.2188 8.41797 19.0664 8.28906L16.5 6.15625V1.375C16.5 1.16406 16.3359 1 16.125 1H13.875C13.6641 1 13.5 1.16406 13.5 1.375V3.66016L10.6406 1.26953C10.1484 0.859374 9.35156 0.859374 8.85938 1.26953L0.433594 8.28906C0.28125 8.41797 0.257813 8.66406 0.386719 8.81641L1.11328 9.68359C1.17188 9.75391 1.26563 9.80078 1.35938 9.8125C1.46484 9.82422 1.55859 9.78906 1.64062 9.73047L9.75 2.96875L17.8594 9.73047C17.9297 9.78906 18.0117 9.8125 18.1055 9.8125C18.1172 9.8125 18.1289 9.8125 18.1406 9.8125C18.2344 9.80078 18.3281 9.75391 18.3867 9.68359L19.1133 8.81641Z" fill="#353A8D"/>
</svg>
