<svg width="26" height="22" viewBox="0 0 26 22" fill="none" xmlns="http://www.w3.org/2000/svg">
<path d="M25.8 5.79778V17.201C25.8 18.2618 25.3786 19.2793 24.6284 20.0294C23.8783 20.7796 22.8609 21.201 21.8 21.201H4.20001C3.13915 21.201 2.12173 20.7796 1.37159 20.0294C0.62144 19.2793 0.200012 18.2618 0.200012 17.201V5.79778L12.5936 13.0906C12.7167 13.1632 12.8571 13.2015 13 13.2015C13.143 13.2015 13.2833 13.1632 13.4064 13.0906L25.8 5.79778ZM21.8 0.400978C22.7842 0.400823 23.734 0.763549 24.4675 1.41976C25.2011 2.07598 25.667 2.9796 25.776 3.95778L13 11.473L0.224012 3.95778C0.333065 2.9796 0.79893 2.07598 1.53248 1.41976C2.26604 0.763549 3.21578 0.400823 4.20001 0.400978H21.8Z" fill="#10246A"/>
</svg>
