<svg width="26" height="26" viewBox="0 0 26 26" fill="none" xmlns="http://www.w3.org/2000/svg">
<path d="M1.62401 0.200974H24.392C25.176 0.200974 25.8 0.824974 25.8 1.60897V24.393C25.8 25.161 25.176 25.801 24.392 25.801H17.864V15.881H21.192L21.688 12.025H17.864V9.56097C17.864 8.44097 18.184 7.67297 19.784 7.67297H21.832V4.21697C21.48 4.16897 20.264 4.07297 18.856 4.07297C15.896 4.07297 13.88 5.86497 13.88 9.17697V12.025H10.536V15.881H13.88V25.801H1.62401C1.2491 25.801 0.889304 25.6532 0.622707 25.3896C0.35611 25.126 0.204225 24.7679 0.200012 24.393V1.60897C0.200012 0.824974 0.840012 0.200974 1.62401 0.200974Z" fill="#0078FF"/>
</svg>
