<svg width="27" height="27" viewBox="0 0 27 27" fill="none" xmlns="http://www.w3.org/2000/svg">
<path d="M-0.00110672 12.8032C-0.00110672 5.44406 5.75954 0.000976562 13.1962 0.000976562C20.6329 0.000976562 26.3936 5.44406 26.3936 12.8032C26.3936 20.1583 20.6329 25.6055 13.1962 25.6055C11.8641 25.6055 10.5799 25.429 9.38138 25.0982C9.1472 25.0345 8.89812 25.0543 8.67697 25.1543L6.0474 26.3099C5.88874 26.3804 5.71516 26.4107 5.542 26.3982C5.36883 26.3857 5.2014 26.3308 5.0545 26.2383C4.90759 26.1458 4.78573 26.0185 4.69967 25.8677C4.61361 25.7169 4.566 25.5472 4.56105 25.3737L4.48352 23.0196C4.47854 22.8781 4.44516 22.739 4.38537 22.6106C4.32557 22.4823 4.24058 22.3672 4.13544 22.2723C2.81229 21.079 1.75886 19.6172 1.04541 17.9845C0.331957 16.3518 -0.0250964 14.5857 -0.00193156 12.8041L-0.00110672 12.8032ZM9.1496 10.3931L5.27866 16.5538C4.89181 17.1336 5.63086 17.8083 6.18103 17.3786L10.3481 14.2211C10.4849 14.1144 10.6534 14.0565 10.8269 14.0565C11.0004 14.0565 11.1689 14.1144 11.3057 14.2211L14.3815 16.5323C14.6008 16.695 14.8512 16.8108 15.1171 16.8724C15.383 16.9341 15.6588 16.9403 15.9273 16.8907C16.1957 16.8411 16.4511 16.7367 16.6774 16.5841C16.9038 16.4315 17.0963 16.2339 17.2429 16.0036L21.1138 9.8429C21.5007 9.26304 20.7616 8.60152 20.2115 9.01806L16.0444 12.1755C15.9099 12.282 15.7433 12.34 15.5718 12.34C15.4002 12.34 15.2336 12.282 15.0991 12.1755L12.0192 9.86434C11.8003 9.69884 11.5493 9.58071 11.2823 9.51746C11.0152 9.45421 10.7379 9.44723 10.468 9.49696C10.1981 9.54669 9.94151 9.65204 9.71453 9.80631C9.48756 9.96059 9.29517 10.1604 9.1496 10.3931Z" fill="#0078FF"/>
</svg>
