<svg width="28" height="28" viewBox="0 0 28 28" fill="none" xmlns="http://www.w3.org/2000/svg">
<path d="M14 0.667664C17.6227 0.667664 18.0747 0.680997 19.496 0.747664C20.916 0.81433 21.8827 1.037 22.7334 1.36766C23.6134 1.70633 24.3547 2.165 25.096 2.905C25.774 3.57153 26.2986 4.37778 26.6334 5.26766C26.9627 6.117 27.1867 7.085 27.2534 8.505C27.316 9.92633 27.3334 10.3783 27.3334 14.001C27.3334 17.6237 27.32 18.0757 27.2534 19.497C27.1867 20.917 26.9627 21.8837 26.6334 22.7343C26.2996 23.6247 25.7749 24.4312 25.096 25.097C24.4293 25.7748 23.6231 26.2993 22.7334 26.6343C21.884 26.9637 20.916 27.1877 19.496 27.2543C18.0747 27.317 17.6227 27.3343 14 27.3343C10.3774 27.3343 9.92535 27.321 8.50402 27.2543C7.08402 27.1877 6.11735 26.9637 5.26669 26.6343C4.37646 26.3003 3.57006 25.7756 2.90402 25.097C2.2259 24.4306 1.70126 23.6243 1.36669 22.7343C1.03602 21.885 0.813354 20.917 0.746687 19.497C0.68402 18.0757 0.666687 17.6237 0.666687 14.001C0.666687 10.3783 0.68002 9.92633 0.746687 8.505C0.813354 7.08366 1.03602 6.11833 1.36669 5.26766C1.70034 4.37724 2.22509 3.57076 2.90402 2.905C3.57025 2.22664 4.37659 1.70197 5.26669 1.36766C6.11735 1.037 7.08269 0.81433 8.50402 0.747664C9.92535 0.684997 10.3774 0.667664 14 0.667664ZM14 7.33433C12.2319 7.33433 10.5362 8.03671 9.28598 9.28695C8.03573 10.5372 7.33335 12.2329 7.33335 14.001C7.33335 15.7691 8.03573 17.4648 9.28598 18.715C10.5362 19.9653 12.2319 20.6677 14 20.6677C15.7681 20.6677 17.4638 19.9653 18.7141 18.715C19.9643 17.4648 20.6667 15.7691 20.6667 14.001C20.6667 12.2329 19.9643 10.5372 18.7141 9.28695C17.4638 8.03671 15.7681 7.33433 14 7.33433ZM22.6667 7.001C22.6667 6.55897 22.4911 6.13505 22.1785 5.82249C21.866 5.50993 21.4421 5.33433 21 5.33433C20.558 5.33433 20.1341 5.50993 19.8215 5.82249C19.5089 6.13505 19.3334 6.55897 19.3334 7.001C19.3334 7.44303 19.5089 7.86695 19.8215 8.17951C20.1341 8.49207 20.558 8.66766 21 8.66766C21.4421 8.66766 21.866 8.49207 22.1785 8.17951C22.4911 7.86695 22.6667 7.44303 22.6667 7.001ZM14 10.001C15.0609 10.001 16.0783 10.4224 16.8284 11.1726C17.5786 11.9227 18 12.9401 18 14.001C18 15.0619 17.5786 16.0793 16.8284 16.8294C16.0783 17.5796 15.0609 18.001 14 18.001C12.9392 18.001 11.9217 17.5796 11.1716 16.8294C10.4214 16.0793 10 15.0619 10 14.001C10 12.9401 10.4214 11.9227 11.1716 11.1726C11.9217 10.4224 12.9392 10.001 14 10.001Z" fill="url(#paint0_linear_0_744)"/>
<defs>
<linearGradient id="paint0_linear_0_744" x1="14" y1="0.667664" x2="14" y2="27.3343" gradientUnits="userSpaceOnUse">
<stop stop-color="#833AB4"/>
<stop offset="1" stop-color="#C13584"/>
</linearGradient>
</defs>
</svg>
