<svg width="27" height="27" viewBox="0 0 27 27" fill="none" xmlns="http://www.w3.org/2000/svg">
<path d="M24.5547 6.28912C20.6056 0.200894 12.5428 -1.60912 6.29006 2.17545C0.20184 5.96002 -1.77272 14.1874 2.1764 20.2756L2.50549 20.7692L1.18912 25.7056L6.12552 24.3892L6.61916 24.7183C8.75826 25.8702 11.0619 26.5283 13.3656 26.5283C15.8338 26.5283 18.302 25.8702 20.4411 24.5538C26.5293 20.6047 28.3393 12.5419 24.5547 6.28912ZM21.0993 18.9592C20.4411 19.9465 19.6183 20.6047 18.4665 20.7692C17.8083 20.7692 16.9856 21.0983 13.6947 19.7819C10.8974 18.4656 8.59372 16.3265 6.94825 13.8583C5.96097 12.7064 5.46733 11.2255 5.30278 9.74459C5.30278 8.42822 5.79642 7.2764 6.61916 6.45366C6.94825 6.12457 7.27734 5.96002 7.60644 5.96002H8.42917C8.75826 5.96002 9.08736 5.96002 9.2519 6.61821C9.581 7.44094 10.4037 9.4155 10.4037 9.58005C10.5683 9.74459 10.5683 10.0737 10.4037 10.2382C10.5683 10.5673 10.4037 10.8964 10.2392 11.061C10.0746 11.2255 9.91009 11.5546 9.74554 11.7192C9.41645 11.8837 9.2519 12.2128 9.41645 12.5419C10.0746 13.5292 10.8974 14.5164 11.7201 15.3392C12.7074 16.1619 13.6947 16.8201 14.8465 17.3137C15.1756 17.4783 15.5047 17.4783 15.6692 17.1492C15.8338 16.8201 16.6565 15.9974 16.9856 15.6683C17.3147 15.3392 17.4792 15.3392 17.8083 15.5037L20.4411 16.8201C20.7702 16.9846 21.0993 17.1492 21.2638 17.3137C21.4284 17.8074 21.4283 18.4656 21.0993 18.9592Z" fill="#25D366"/>
</svg>
