<svg width="16" height="15" viewBox="0 0 16 15" fill="none" xmlns="http://www.w3.org/2000/svg">
<path d="M1 8.00003L12.86 8.00003L9.23 12.36C9.06026 12.5642 8.9786 12.8275 9.00298 13.092C9.02736 13.3564 9.15578 13.6003 9.36 13.77C9.56422 13.9398 9.8275 14.0214 10.0919 13.9971C10.3563 13.9727 10.6003 13.8442 10.77 13.64L15.77 7.64003C15.8036 7.59231 15.8337 7.54217 15.86 7.49003C15.86 7.44003 15.86 7.41003 15.93 7.36003C15.9753 7.24537 15.9991 7.12332 16 7.00003C15.9991 6.87674 15.9753 6.75469 15.93 6.64003C15.93 6.59003 15.93 6.56003 15.86 6.51003C15.8337 6.45789 15.8036 6.40775 15.77 6.36003L10.77 0.36003C10.676 0.247148 10.5582 0.156367 10.4252 0.0941458C10.2921 0.0319242 10.1469 -0.000208855 10 2.95639e-05C9.76635 -0.000427246 9.53991 0.0809479 9.36 0.230029C9.25874 0.313978 9.17504 0.41708 9.11369 0.533427C9.05234 0.649775 9.01454 0.777081 9.00246 0.908057C8.99039 1.03903 9.00427 1.17111 9.04331 1.29671C9.08236 1.42231 9.1458 1.53898 9.23 1.64003L12.86 6.00003L1 6.00003C0.734783 6.00003 0.480429 6.10539 0.292892 6.29292C0.105356 6.48046 0 6.73481 0 7.00003C0 7.26525 0.105356 7.5196 0.292892 7.70714C0.480429 7.89467 0.734783 8.00003 1 8.00003Z" fill="white"/>
</svg>
