<svg width="19" height="16" viewBox="0 0 19 16" fill="none" xmlns="http://www.w3.org/2000/svg">
<path d="M18.9255 13.6429C18.9255 13.2132 18.5695 12.8571 18.1398 12.8571H0.854074C0.424386 12.8571 0.0683594 13.2132 0.0683594 13.6429V15.2143C0.0683594 15.644 0.424386 16 0.854074 16H18.1398C18.5695 16 18.9255 15.644 18.9255 15.2143V13.6429ZM18.9255 7.35714C18.9255 6.92745 18.5695 6.57143 18.1398 6.57143H0.854074C0.424386 6.57143 0.0683594 6.92745 0.0683594 7.35714V8.92857C0.0683594 9.35826 0.424386 9.71429 0.854074 9.71429H18.1398C18.5695 9.71429 18.9255 9.35826 18.9255 8.92857V7.35714ZM18.9255 1.07143C18.9255 0.64174 18.5695 0.285714 18.1398 0.285714H0.854074C0.424386 0.285714 0.0683594 0.64174 0.0683594 1.07143V2.64286C0.0683594 3.07254 0.424386 3.42857 0.854074 3.42857H18.1398C18.5695 3.42857 18.9255 3.07254 18.9255 2.64286V1.07143Z" fill="#353A8D"/>
</svg>
