<svg width="15" height="12" viewBox="0 0 15 12" fill="none" xmlns="http://www.w3.org/2000/svg">
<path d="M5 3.5C5 2.67187 4.32813 2 3.5 2C2.67188 2 2 2.67187 2 3.5C2 4.32812 2.67188 5 3.5 5C4.32813 5 5 4.32812 5 3.5ZM13 6.5L9.75 3.25L5.75 7.25L4.5 6L2 8.5V10H13V6.5ZM13.75 1C13.8828 1 14 1.11719 14 1.25V10.75C14 10.8828 13.8828 11 13.75 11H1.25C1.11719 11 1 10.8828 1 10.75V1.25C1 1.11719 1.11719 1 1.25 1H13.75ZM15 1.25C15 0.5625 14.4375 -5.96046e-07 13.75 -5.96046e-07H1.25C0.5625 -5.96046e-07 0 0.5625 0 1.25V10.75C0 11.4375 0.5625 12 1.25 12H13.75C14.4375 12 15 11.4375 15 10.75V1.25Z" fill="#60627D"/>
</svg>
