<svg width="14" height="14" viewBox="0 0 14 14" fill="none" xmlns="http://www.w3.org/2000/svg">
<path d="M0.336172 13.6666L1.23751 10.3546C0.643597 9.33655 0.331569 8.17864 0.333505 6.99998C0.333505 3.31798 3.31817 0.333313 7.00017 0.333313C10.6822 0.333313 13.6668 3.31798 13.6668 6.99998C13.6668 10.682 10.6822 13.6666 7.00017 13.6666C5.82202 13.6685 4.66461 13.3568 3.64684 12.7633L0.336172 13.6666ZM4.59417 3.87198C4.50808 3.87733 4.42395 3.9 4.34684 3.93865C4.27452 3.9796 4.2085 4.0308 4.15084 4.09065C4.07084 4.16598 4.02551 4.23131 3.97684 4.29465C3.73045 4.61531 3.59791 5.00893 3.60017 5.41331C3.60151 5.73998 3.68684 6.05798 3.82017 6.35531C4.09284 6.95665 4.54151 7.59331 5.13417 8.18331C5.27684 8.32531 5.41617 8.46798 5.56617 8.60065C6.30176 9.24829 7.17834 9.71534 8.12617 9.96465L8.50551 10.0226C8.62884 10.0293 8.75217 10.02 8.87617 10.014C9.07033 10.004 9.25991 9.95138 9.43151 9.85998C9.51881 9.81501 9.60401 9.76607 9.68684 9.71331C9.68684 9.71331 9.71551 9.69465 9.77017 9.65331C9.86017 9.58665 9.91551 9.53931 9.99017 9.46131C10.0455 9.40398 10.0935 9.33665 10.1302 9.25998C10.1822 9.15131 10.2342 8.94398 10.2555 8.77131C10.2715 8.63931 10.2668 8.56731 10.2648 8.52265C10.2622 8.45131 10.2028 8.37731 10.1382 8.34598L9.75017 8.17198C9.75017 8.17198 9.17017 7.91931 8.81617 7.75798C8.77885 7.74171 8.73885 7.73244 8.69817 7.73065C8.65256 7.72596 8.60647 7.73109 8.56301 7.7457C8.51954 7.7603 8.4797 7.78404 8.44617 7.81531V7.81398C8.44284 7.81398 8.39817 7.85198 7.91617 8.43598C7.88851 8.47315 7.8504 8.50125 7.80671 8.51668C7.76301 8.53212 7.71571 8.53419 7.67084 8.52265C7.6274 8.51103 7.58485 8.49633 7.5435 8.47865C7.46084 8.44398 7.43217 8.43065 7.3755 8.40598L7.37217 8.40465C6.99078 8.23813 6.63765 8.01321 6.32551 7.73798C6.24151 7.66465 6.16351 7.58465 6.08351 7.50731C5.82122 7.25614 5.59265 6.97199 5.4035 6.66198L5.36417 6.59865C5.33592 6.55609 5.31308 6.51018 5.29617 6.46198C5.27084 6.36398 5.33684 6.28531 5.33684 6.28531C5.33684 6.28531 5.49884 6.10798 5.57417 6.01198C5.6369 5.93219 5.69542 5.84919 5.74951 5.76331C5.82817 5.63665 5.85284 5.50665 5.81151 5.40598C5.62484 4.94998 5.43151 4.49598 5.23284 4.04531C5.19351 3.95598 5.07684 3.89198 4.97084 3.87931C4.93484 3.87531 4.89884 3.87131 4.86284 3.86865C4.77331 3.8642 4.68359 3.86509 4.59417 3.87131V3.87198Z" fill="white"/>
</svg>
